G04 Layer_Physical_Order=2*
G04 Layer_Color=16711680*
%FSAX23Y23*%
%MOIN*%
G70*
G01*
G75*
%ADD11R,0.080X0.080*%
%ADD12C,0.080*%
%ADD13C,0.059*%
%ADD14R,0.059X0.059*%
%ADD15C,0.055*%
%ADD16R,0.059X0.059*%
%ADD17C,0.063*%
%ADD18C,0.059*%
%ADD19R,0.080X0.080*%
%ADD20C,0.157*%
%ADD21C,0.050*%
G36*
X04885Y04359D02*
X04929Y04354D01*
X04972Y04345D01*
X05014Y04334D01*
X05055Y04320D01*
X05096Y04303D01*
X05135Y04284D01*
X05173Y04262D01*
X05209Y04238D01*
X05244Y04211D01*
X05276Y04182D01*
X05307Y04151D01*
X05336Y04119D01*
X05363Y04084D01*
X05387Y04048D01*
X05409Y04010D01*
X05428Y03971D01*
X05445Y03930D01*
X05459Y03889D01*
X05470Y03847D01*
X05479Y03804D01*
X05484Y03760D01*
X05487Y03717D01*
Y03673D01*
X05484Y03630D01*
X05479Y03586D01*
X05470Y03543D01*
X05459Y03501D01*
X05445Y03460D01*
X05428Y03419D01*
X05409Y03380D01*
X05387Y03342D01*
X05363Y03306D01*
X05336Y03271D01*
X05307Y03239D01*
X05276Y03208D01*
X05244Y03179D01*
X05209Y03152D01*
X05173Y03128D01*
X05135Y03106D01*
X05096Y03087D01*
X05055Y03070D01*
X05014Y03056D01*
X04972Y03045D01*
X04929Y03036D01*
X04885Y03031D01*
X04842Y03028D01*
X04798D01*
X04755Y03031D01*
X04711Y03036D01*
X04668Y03045D01*
X04626Y03056D01*
X04585Y03070D01*
X04544Y03087D01*
X04505Y03106D01*
X04467Y03128D01*
X04431Y03152D01*
X04396Y03179D01*
X04364Y03208D01*
X04333Y03239D01*
X04304Y03271D01*
X04277Y03306D01*
X04253Y03342D01*
X04231Y03380D01*
X04212Y03419D01*
X04195Y03460D01*
X04181Y03501D01*
X04170Y03543D01*
X04161Y03586D01*
X04156Y03630D01*
X04153Y03673D01*
Y03717D01*
X04156Y03760D01*
X04161Y03804D01*
X04170Y03847D01*
X04181Y03889D01*
X04195Y03930D01*
X04212Y03971D01*
X04231Y04010D01*
X04253Y04048D01*
X04277Y04084D01*
X04304Y04119D01*
X04333Y04151D01*
X04364Y04182D01*
X04396Y04211D01*
X04431Y04238D01*
X04467Y04262D01*
X04505Y04284D01*
X04544Y04303D01*
X04585Y04320D01*
X04626Y04334D01*
X04668Y04345D01*
X04711Y04354D01*
X04755Y04359D01*
X04798Y04362D01*
X04842D01*
X04885Y04359D01*
D02*
G37*
%LPC*%
G36*
X04425Y03674D02*
Y03640D01*
X04459D01*
X04459Y03645D01*
X04455Y03655D01*
X04448Y03663D01*
X04440Y03670D01*
X04430Y03674D01*
X04425Y03674D01*
D02*
G37*
G36*
X05370Y03855D02*
X05357Y03854D01*
X05345Y03849D01*
X05334Y03841D01*
X05326Y03830D01*
X05321Y03818D01*
X05320Y03805D01*
X05321Y03792D01*
X05326Y03780D01*
X05334Y03769D01*
X05345Y03761D01*
X05354Y03758D01*
Y03752D01*
X05345Y03749D01*
X05334Y03741D01*
X05326Y03730D01*
X05321Y03718D01*
X05320Y03710D01*
X05370D01*
X05420D01*
X05419Y03718D01*
X05414Y03730D01*
X05406Y03741D01*
X05395Y03749D01*
X05386Y03752D01*
Y03758D01*
X05395Y03761D01*
X05406Y03769D01*
X05414Y03780D01*
X05419Y03792D01*
X05420Y03805D01*
X05419Y03818D01*
X05414Y03830D01*
X05406Y03841D01*
X05395Y03849D01*
X05383Y03854D01*
X05370Y03855D01*
D02*
G37*
G36*
X04459Y03630D02*
X04425D01*
Y03596D01*
X04430Y03596D01*
X04440Y03600D01*
X04448Y03607D01*
X04455Y03615D01*
X04459Y03625D01*
X04459Y03630D01*
D02*
G37*
G36*
X04820Y03784D02*
X04803Y03782D01*
X04786Y03777D01*
X04770Y03769D01*
X04757Y03758D01*
X04746Y03745D01*
X04738Y03729D01*
X04733Y03712D01*
X04731Y03695D01*
X04733Y03678D01*
X04738Y03661D01*
X04746Y03645D01*
X04757Y03632D01*
X04770Y03621D01*
X04786Y03613D01*
X04803Y03608D01*
X04820Y03606D01*
X04837Y03608D01*
X04854Y03613D01*
X04870Y03621D01*
X04883Y03632D01*
X04894Y03645D01*
X04902Y03661D01*
X04907Y03678D01*
X04909Y03695D01*
X04907Y03712D01*
X04902Y03729D01*
X04894Y03745D01*
X04883Y03758D01*
X04870Y03769D01*
X04854Y03777D01*
X04837Y03782D01*
X04820Y03784D01*
D02*
G37*
G36*
X05205Y03804D02*
X05200Y03804D01*
X05190Y03800D01*
X05182Y03793D01*
X05175Y03785D01*
X05171Y03775D01*
X05171Y03770D01*
X05205D01*
Y03804D01*
D02*
G37*
G36*
X05215D02*
Y03770D01*
X05249D01*
X05249Y03775D01*
X05245Y03785D01*
X05238Y03793D01*
X05230Y03800D01*
X05220Y03804D01*
X05215Y03804D01*
D02*
G37*
G36*
X05205Y03760D02*
X05171D01*
X05171Y03755D01*
X05175Y03745D01*
X05182Y03737D01*
X05190Y03730D01*
X05200Y03726D01*
X05205Y03726D01*
Y03760D01*
D02*
G37*
G36*
X05249D02*
X05215D01*
Y03726D01*
X05220Y03726D01*
X05230Y03730D01*
X05238Y03737D01*
X05245Y03745D01*
X05249Y03755D01*
X05249Y03760D01*
D02*
G37*
G36*
X04880Y03255D02*
X04846D01*
X04846Y03250D01*
X04850Y03240D01*
X04857Y03232D01*
X04865Y03225D01*
X04875Y03221D01*
X04880Y03221D01*
Y03255D01*
D02*
G37*
G36*
X04924D02*
X04890D01*
Y03221D01*
X04895Y03221D01*
X04905Y03225D01*
X04913Y03232D01*
X04920Y03240D01*
X04924Y03250D01*
X04924Y03255D01*
D02*
G37*
G36*
X04985Y03300D02*
X04975Y03299D01*
X04965Y03295D01*
X04957Y03288D01*
X04950Y03280D01*
X04946Y03270D01*
X04945Y03260D01*
X04946Y03250D01*
X04950Y03240D01*
X04957Y03232D01*
X04965Y03225D01*
X04975Y03221D01*
X04985Y03220D01*
X04995Y03221D01*
X05005Y03225D01*
X05013Y03232D01*
X05020Y03240D01*
X05024Y03250D01*
X05025Y03260D01*
X05024Y03270D01*
X05020Y03280D01*
X05013Y03288D01*
X05005Y03295D01*
X04995Y03299D01*
X04985Y03300D01*
D02*
G37*
G36*
X04725Y03300D02*
X04645D01*
Y03220D01*
X04725D01*
Y03300D01*
D02*
G37*
G36*
X05420Y03700D02*
X05370D01*
X05320D01*
X05321Y03692D01*
X05326Y03680D01*
X05334Y03669D01*
X05345Y03661D01*
X05348Y03660D01*
X05347Y03655D01*
X05320D01*
Y03555D01*
X05420D01*
Y03655D01*
X05393D01*
X05392Y03660D01*
X05395Y03661D01*
X05406Y03669D01*
X05414Y03680D01*
X05419Y03692D01*
X05420Y03700D01*
D02*
G37*
G36*
X05065Y03638D02*
X05055Y03637D01*
X05046Y03633D01*
X05038Y03627D01*
X05032Y03619D01*
X05028Y03610D01*
X05027Y03600D01*
X05028Y03590D01*
X05032Y03581D01*
X05038Y03573D01*
X05046Y03567D01*
X05055Y03563D01*
X05065Y03562D01*
X05075Y03563D01*
X05084Y03567D01*
X05092Y03573D01*
X05098Y03581D01*
X05102Y03590D01*
X05103Y03600D01*
X05102Y03610D01*
X05098Y03619D01*
X05092Y03627D01*
X05084Y03633D01*
X05075Y03637D01*
X05065Y03638D01*
D02*
G37*
G36*
X04890Y03299D02*
Y03265D01*
X04924D01*
X04924Y03270D01*
X04920Y03280D01*
X04913Y03288D01*
X04905Y03295D01*
X04895Y03299D01*
X04890Y03299D01*
D02*
G37*
G36*
X05250Y03605D02*
X05170D01*
Y03525D01*
X05250D01*
Y03605D01*
D02*
G37*
G36*
X04785Y04155D02*
X04775Y04154D01*
X04765Y04150D01*
X04757Y04143D01*
X04750Y04135D01*
X04746Y04125D01*
X04745Y04115D01*
X04746Y04105D01*
X04750Y04097D01*
Y03935D01*
X04585Y03770D01*
X04438D01*
X04430Y03774D01*
X04420Y03775D01*
X04410Y03774D01*
X04400Y03770D01*
X04392Y03763D01*
X04385Y03755D01*
X04382Y03747D01*
X04330Y03695D01*
X04325Y03688D01*
X04322Y03689D01*
X04320Y03690D01*
X04319Y03698D01*
X04314Y03710D01*
X04306Y03721D01*
X04295Y03729D01*
X04292Y03730D01*
X04293Y03735D01*
X04320D01*
Y03835D01*
X04220D01*
Y03735D01*
X04247D01*
X04248Y03730D01*
X04245Y03729D01*
X04234Y03721D01*
X04226Y03710D01*
X04221Y03698D01*
X04220Y03690D01*
X04270D01*
Y03680D01*
X04220D01*
X04221Y03672D01*
X04226Y03660D01*
X04234Y03649D01*
X04245Y03641D01*
X04254Y03638D01*
Y03632D01*
X04245Y03629D01*
X04234Y03621D01*
X04226Y03610D01*
X04221Y03598D01*
X04220Y03585D01*
X04221Y03572D01*
X04226Y03560D01*
X04234Y03549D01*
X04245Y03541D01*
X04257Y03536D01*
X04270Y03535D01*
X04283Y03536D01*
X04295Y03541D01*
X04306Y03549D01*
X04314Y03560D01*
X04315Y03562D01*
X04320Y03561D01*
Y03420D01*
X04321Y03411D01*
X04324Y03402D01*
X04330Y03395D01*
X04590Y03135D01*
X04597Y03129D01*
X04606Y03126D01*
X04615Y03125D01*
X04740D01*
X04749Y03126D01*
X04758Y03129D01*
X04765Y03135D01*
X04810Y03180D01*
X04816Y03187D01*
X04819Y03196D01*
X04820Y03205D01*
Y03242D01*
X04823Y03248D01*
X04841Y03266D01*
X04843Y03265D01*
X04880D01*
Y03302D01*
X04879Y03304D01*
X04965Y03390D01*
X04971Y03397D01*
X04974Y03406D01*
X04975Y03415D01*
Y03490D01*
Y03580D01*
X05050Y03655D01*
X05090D01*
X05105Y03640D01*
X05112Y03634D01*
X05121Y03631D01*
X05130Y03630D01*
X05192D01*
X05200Y03626D01*
X05210Y03625D01*
X05220Y03626D01*
X05230Y03630D01*
X05238Y03637D01*
X05245Y03645D01*
X05249Y03655D01*
X05250Y03665D01*
X05249Y03675D01*
X05245Y03685D01*
X05238Y03693D01*
X05230Y03700D01*
X05220Y03704D01*
X05210Y03705D01*
X05200Y03704D01*
X05192Y03700D01*
X05145D01*
X05130Y03715D01*
X05123Y03721D01*
X05114Y03724D01*
X05105Y03725D01*
X05035D01*
X05026Y03724D01*
X05017Y03721D01*
X05010Y03715D01*
X04915Y03620D01*
X04909Y03613D01*
X04906Y03604D01*
X04905Y03595D01*
Y03525D01*
X04842D01*
X04841Y03526D01*
X04831Y03530D01*
X04820Y03532D01*
X04809Y03530D01*
X04799Y03526D01*
X04790Y03520D01*
X04784Y03511D01*
X04780Y03501D01*
X04778Y03490D01*
X04780Y03479D01*
X04784Y03469D01*
X04790Y03460D01*
X04799Y03454D01*
X04809Y03450D01*
X04820Y03448D01*
X04831Y03450D01*
X04841Y03454D01*
X04842Y03455D01*
X04905D01*
Y03430D01*
X04867Y03392D01*
X04861Y03393D01*
X04860Y03401D01*
X04856Y03411D01*
X04850Y03420D01*
X04841Y03426D01*
X04831Y03430D01*
X04820Y03432D01*
X04809Y03430D01*
X04799Y03426D01*
X04790Y03420D01*
X04784Y03411D01*
X04780Y03401D01*
X04778Y03390D01*
X04780Y03379D01*
X04784Y03369D01*
X04790Y03360D01*
X04799Y03354D01*
X04809Y03350D01*
X04817Y03349D01*
X04818Y03343D01*
X04773Y03298D01*
X04765Y03295D01*
X04757Y03288D01*
X04750Y03280D01*
X04746Y03270D01*
X04745Y03260D01*
X04746Y03250D01*
X04750Y03242D01*
Y03220D01*
X04725Y03195D01*
X04630D01*
X04390Y03435D01*
Y03502D01*
X04395Y03504D01*
X04400Y03500D01*
X04410Y03496D01*
X04420Y03495D01*
X04430Y03496D01*
X04440Y03500D01*
X04448Y03507D01*
X04455Y03515D01*
X04459Y03525D01*
X04460Y03535D01*
X04459Y03545D01*
X04455Y03555D01*
X04448Y03563D01*
X04440Y03570D01*
X04430Y03574D01*
X04420Y03575D01*
X04410Y03574D01*
X04400Y03570D01*
X04395Y03566D01*
X04390Y03568D01*
Y03602D01*
X04395Y03604D01*
X04400Y03600D01*
X04410Y03596D01*
X04415Y03596D01*
Y03635D01*
Y03677D01*
X04414Y03679D01*
X04432Y03697D01*
X04438Y03700D01*
X04560D01*
Y03613D01*
X04558Y03610D01*
X04557Y03600D01*
X04558Y03590D01*
X04562Y03581D01*
X04568Y03573D01*
X04576Y03567D01*
X04585Y03563D01*
X04595Y03562D01*
X04605Y03563D01*
X04614Y03567D01*
X04622Y03573D01*
X04628Y03581D01*
X04632Y03590D01*
X04633Y03600D01*
X04632Y03610D01*
X04630Y03613D01*
Y03715D01*
X04810Y03895D01*
X04816Y03902D01*
X04819Y03911D01*
X04820Y03920D01*
Y04097D01*
X04824Y04105D01*
X04825Y04115D01*
X04824Y04125D01*
X04820Y04135D01*
X04813Y04143D01*
X04805Y04150D01*
X04795Y04154D01*
X04785Y04155D01*
D02*
G37*
G36*
X04880Y04110D02*
X04846D01*
X04846Y04105D01*
X04850Y04095D01*
X04857Y04087D01*
X04865Y04080D01*
X04875Y04076D01*
X04880Y04076D01*
Y04110D01*
D02*
G37*
G36*
X04924D02*
X04890D01*
Y04076D01*
X04895Y04076D01*
X04905Y04080D01*
X04913Y04087D01*
X04920Y04095D01*
X04924Y04105D01*
X04924Y04110D01*
D02*
G37*
G36*
X04985Y04155D02*
X04975Y04154D01*
X04965Y04150D01*
X04957Y04143D01*
X04950Y04135D01*
X04946Y04125D01*
X04945Y04115D01*
X04946Y04105D01*
X04950Y04095D01*
X04957Y04087D01*
X04965Y04080D01*
X04975Y04076D01*
X04985Y04075D01*
X04995Y04076D01*
X05005Y04080D01*
X05013Y04087D01*
X05020Y04095D01*
X05024Y04105D01*
X05025Y04115D01*
X05024Y04125D01*
X05020Y04135D01*
X05013Y04143D01*
X05005Y04150D01*
X04995Y04154D01*
X04985Y04155D01*
D02*
G37*
G36*
X04725Y04155D02*
X04645D01*
Y04075D01*
X04725D01*
Y04155D01*
D02*
G37*
G36*
X04725Y04300D02*
X04712Y04299D01*
X04700Y04294D01*
X04689Y04286D01*
X04681Y04275D01*
X04676Y04263D01*
X04675Y04250D01*
X04676Y04237D01*
X04681Y04225D01*
X04689Y04214D01*
X04700Y04206D01*
X04712Y04201D01*
X04725Y04200D01*
X04738Y04201D01*
X04750Y04206D01*
X04761Y04214D01*
X04769Y04225D01*
X04772Y04234D01*
X04778D01*
X04781Y04225D01*
X04789Y04214D01*
X04800Y04206D01*
X04812Y04201D01*
X04820Y04200D01*
Y04250D01*
Y04300D01*
X04812Y04299D01*
X04800Y04294D01*
X04789Y04286D01*
X04781Y04275D01*
X04778Y04266D01*
X04772D01*
X04769Y04275D01*
X04761Y04286D01*
X04750Y04294D01*
X04738Y04299D01*
X04725Y04300D01*
D02*
G37*
G36*
X04975Y04300D02*
X04875D01*
Y04273D01*
X04870Y04272D01*
X04869Y04275D01*
X04861Y04286D01*
X04850Y04294D01*
X04838Y04299D01*
X04830Y04300D01*
Y04250D01*
Y04200D01*
X04838Y04201D01*
X04850Y04206D01*
X04861Y04214D01*
X04869Y04225D01*
X04870Y04228D01*
X04875Y04227D01*
Y04200D01*
X04975D01*
Y04300D01*
D02*
G37*
G36*
X04880Y04154D02*
X04875Y04154D01*
X04865Y04150D01*
X04857Y04143D01*
X04850Y04135D01*
X04846Y04125D01*
X04846Y04120D01*
X04880D01*
Y04154D01*
D02*
G37*
G36*
X04890D02*
Y04120D01*
X04924D01*
X04924Y04125D01*
X04920Y04135D01*
X04913Y04143D01*
X04905Y04150D01*
X04895Y04154D01*
X04890Y04154D01*
D02*
G37*
G36*
X04523Y04109D02*
Y04075D01*
X04558D01*
X04557Y04080D01*
X04553Y04090D01*
X04547Y04098D01*
X04538Y04105D01*
X04529Y04109D01*
X04523Y04109D01*
D02*
G37*
G36*
X04595Y03938D02*
X04585Y03937D01*
X04576Y03933D01*
X04568Y03927D01*
X04562Y03919D01*
X04558Y03910D01*
X04557Y03900D01*
X04558Y03890D01*
X04562Y03881D01*
X04568Y03873D01*
X04576Y03867D01*
X04585Y03863D01*
X04595Y03862D01*
X04605Y03863D01*
X04614Y03867D01*
X04622Y03873D01*
X04628Y03881D01*
X04632Y03890D01*
X04633Y03900D01*
X04632Y03910D01*
X04628Y03919D01*
X04622Y03927D01*
X04614Y03933D01*
X04605Y03937D01*
X04595Y03938D01*
D02*
G37*
G36*
X05065D02*
X05055Y03937D01*
X05046Y03933D01*
X05038Y03927D01*
X05032Y03919D01*
X05028Y03910D01*
X05027Y03900D01*
X05028Y03890D01*
X05032Y03881D01*
X05038Y03873D01*
X05046Y03867D01*
X05055Y03863D01*
X05065Y03862D01*
X05075Y03863D01*
X05084Y03867D01*
X05092Y03873D01*
X05098Y03881D01*
X05102Y03890D01*
X05103Y03900D01*
X05102Y03910D01*
X05098Y03919D01*
X05092Y03927D01*
X05084Y03933D01*
X05075Y03937D01*
X05065Y03938D01*
D02*
G37*
G36*
X04460Y03875D02*
X04380D01*
Y03795D01*
X04460D01*
Y03875D01*
D02*
G37*
G36*
X05210Y03905D02*
X05200Y03904D01*
X05190Y03900D01*
X05182Y03893D01*
X05175Y03885D01*
X05171Y03875D01*
X05170Y03865D01*
X05171Y03855D01*
X05175Y03845D01*
X05182Y03837D01*
X05190Y03830D01*
X05200Y03826D01*
X05210Y03825D01*
X05220Y03826D01*
X05230Y03830D01*
X05238Y03837D01*
X05245Y03845D01*
X05249Y03855D01*
X05250Y03865D01*
X05249Y03875D01*
X05245Y03885D01*
X05238Y03893D01*
X05230Y03900D01*
X05220Y03904D01*
X05210Y03905D01*
D02*
G37*
G36*
X04558Y04065D02*
X04523D01*
Y04031D01*
X04529Y04031D01*
X04538Y04035D01*
X04547Y04042D01*
X04553Y04050D01*
X04557Y04060D01*
X04558Y04065D01*
D02*
G37*
G36*
X04513Y04109D02*
X04508Y04109D01*
X04498Y04105D01*
X04490Y04098D01*
X04484Y04090D01*
X04480Y04080D01*
X04479Y04075D01*
X04513D01*
Y04109D01*
D02*
G37*
G36*
X04460Y04110D02*
X04380D01*
Y04030D01*
X04460D01*
Y04110D01*
D02*
G37*
G36*
X04513Y04065D02*
X04479D01*
X04480Y04060D01*
X04484Y04050D01*
X04490Y04042D01*
X04498Y04035D01*
X04508Y04031D01*
X04513Y04031D01*
Y04065D01*
D02*
G37*
%LPD*%
D11*
X04270Y03785D02*
D03*
X05370Y03605D02*
D03*
D12*
X04270Y03685D02*
D03*
Y03585D02*
D03*
X05370Y03705D02*
D03*
Y03805D02*
D03*
X04825Y04250D02*
D03*
X04725D02*
D03*
D13*
X04985Y03260D02*
D03*
X04885D02*
D03*
X04785D02*
D03*
X04420Y03535D02*
D03*
Y03635D02*
D03*
Y03735D02*
D03*
X04985Y04115D02*
D03*
X04885D02*
D03*
X04785D02*
D03*
X05210Y03865D02*
D03*
Y03765D02*
D03*
Y03665D02*
D03*
D14*
X04685Y03260D02*
D03*
Y04115D02*
D03*
X04420Y04070D02*
D03*
D15*
X04595Y03900D02*
D03*
Y03600D02*
D03*
X05065Y03900D02*
D03*
Y03600D02*
D03*
D16*
X04420Y03835D02*
D03*
X05210Y03565D02*
D03*
D17*
X04820Y03490D02*
D03*
Y03390D02*
D03*
D18*
X04518Y04070D02*
D03*
D19*
X04925Y04250D02*
D03*
D20*
X04820Y03695D02*
D03*
D21*
X04600Y03735D02*
X04785Y03920D01*
X04595Y03730D02*
X04600Y03735D01*
X04595Y03600D02*
Y03730D01*
X04940Y03490D02*
Y03595D01*
Y03415D02*
Y03490D01*
X04820D02*
X04940D01*
X04355Y03670D02*
X04420Y03735D01*
X04355Y03420D02*
Y03670D01*
Y03420D02*
X04615Y03160D01*
X04740D01*
X04785Y03205D01*
Y03260D01*
X04940Y03415D01*
Y03595D02*
X05035Y03690D01*
X05105D01*
X05130Y03665D01*
X05210D01*
X04420Y03735D02*
X04600D01*
X04785Y03920D02*
Y04115D01*
M02*
