M48
;Layer_Color=9474304
;FILE_FORMAT=2:5
INCH,TZ
;TYPE=PLATED
T1F00S00C0.03150
T2F00S00C0.03346
T3F00S00C0.03543
T4F00S00C0.04200
T5F00S00C0.11811
%
T01
X482000Y339000
Y349000
T02
X459500Y360000
Y390000
X506500
Y360000
T03
X468500Y326000
X442000Y353500
Y363500
Y373500
Y383500
Y407000
X451843
X468500Y411500
X478500
X488500
X498500
X521000Y386500
Y376500
Y366500
Y356500
X498500Y326000
X488500
X478500
T04
X427000Y358500
Y368500
Y378500
X472500Y425000
X482500
X492500
X537000Y380500
Y370500
Y360500
T05
X482000Y369500
M30
