G04 Layer_Physical_Order=2*
G04 Layer_Color=16711680*
%FSLAX25Y25*%
%MOIN*%
G70*
G01*
G75*
%ADD11R,0.08000X0.08000*%
%ADD12C,0.08000*%
%ADD13C,0.05906*%
%ADD14R,0.05906X0.05906*%
%ADD15C,0.05512*%
%ADD16R,0.05906X0.05906*%
%ADD17C,0.06299*%
%ADD18C,0.05906*%
%ADD19R,0.08000X0.08000*%
%ADD20C,0.15748*%
%ADD21C,0.05000*%
G36*
X488544Y435947D02*
X492876Y435376D01*
X497161Y434524D01*
X501382Y433393D01*
X505519Y431989D01*
X509556Y430317D01*
X513474Y428384D01*
X517258Y426199D01*
X520891Y423772D01*
X524357Y421112D01*
X527642Y418232D01*
X530732Y415142D01*
X533612Y411857D01*
X536272Y408391D01*
X538699Y404758D01*
X540884Y400974D01*
X542817Y397056D01*
X544489Y393019D01*
X545893Y388882D01*
X547024Y384661D01*
X547876Y380376D01*
X548447Y376044D01*
X548732Y371685D01*
Y367315D01*
X548447Y362956D01*
X547876Y358624D01*
X547024Y354339D01*
X545893Y350118D01*
X544489Y345981D01*
X542817Y341944D01*
X540884Y338026D01*
X538699Y334242D01*
X536272Y330609D01*
X533612Y327143D01*
X530732Y323858D01*
X527642Y320768D01*
X524357Y317888D01*
X520891Y315228D01*
X517258Y312800D01*
X513474Y310616D01*
X509556Y308683D01*
X505519Y307011D01*
X501382Y305607D01*
X497161Y304476D01*
X492876Y303624D01*
X488544Y303053D01*
X484185Y302768D01*
X479815D01*
X475456Y303053D01*
X471124Y303624D01*
X466839Y304476D01*
X462618Y305607D01*
X458481Y307011D01*
X454444Y308683D01*
X450526Y310616D01*
X446742Y312800D01*
X443109Y315228D01*
X439643Y317888D01*
X436358Y320768D01*
X433268Y323858D01*
X430388Y327143D01*
X427728Y330609D01*
X425300Y334242D01*
X423116Y338026D01*
X421183Y341944D01*
X419511Y345981D01*
X418107Y350118D01*
X416976Y354339D01*
X416124Y358624D01*
X415554Y362956D01*
X415268Y367315D01*
Y371685D01*
X415554Y376044D01*
X416124Y380376D01*
X416976Y384661D01*
X418107Y388882D01*
X419511Y393019D01*
X421183Y397056D01*
X423116Y400974D01*
X425300Y404758D01*
X427728Y408391D01*
X430388Y411857D01*
X433268Y415142D01*
X436358Y418232D01*
X439643Y421112D01*
X443109Y423772D01*
X446742Y426199D01*
X450526Y428384D01*
X454444Y430317D01*
X458481Y431989D01*
X462618Y433393D01*
X466839Y434524D01*
X471124Y435376D01*
X475456Y435947D01*
X479815Y436232D01*
X484185D01*
X488544Y435947D01*
D02*
G37*
%LPC*%
G36*
X442500Y367421D02*
Y364000D01*
X445921D01*
X445851Y364532D01*
X445453Y365493D01*
X444819Y366319D01*
X443993Y366953D01*
X443032Y367351D01*
X442500Y367421D01*
D02*
G37*
G36*
X537000Y385543D02*
X535695Y385371D01*
X534478Y384868D01*
X533434Y384066D01*
X532632Y383022D01*
X532129Y381805D01*
X531957Y380500D01*
X532129Y379195D01*
X532632Y377978D01*
X533434Y376934D01*
X534478Y376132D01*
X535352Y375771D01*
Y375229D01*
X534478Y374868D01*
X533434Y374066D01*
X532632Y373022D01*
X532129Y371805D01*
X532023Y371000D01*
X537000D01*
X541977D01*
X541871Y371805D01*
X541367Y373022D01*
X540566Y374066D01*
X539522Y374868D01*
X538648Y375229D01*
Y375771D01*
X539522Y376132D01*
X540566Y376934D01*
X541367Y377978D01*
X541871Y379195D01*
X542043Y380500D01*
X541871Y381805D01*
X541367Y383022D01*
X540566Y384066D01*
X539522Y384868D01*
X538305Y385371D01*
X537000Y385543D01*
D02*
G37*
G36*
X445921Y363000D02*
X442500D01*
Y359579D01*
X443032Y359649D01*
X443993Y360047D01*
X444819Y360681D01*
X445453Y361507D01*
X445851Y362468D01*
X445921Y363000D01*
D02*
G37*
G36*
X482000Y378417D02*
X480260Y378246D01*
X478588Y377738D01*
X477046Y376914D01*
X475695Y375805D01*
X474586Y374454D01*
X473762Y372912D01*
X473254Y371240D01*
X473083Y369500D01*
X473254Y367760D01*
X473762Y366088D01*
X474586Y364546D01*
X475695Y363195D01*
X477046Y362086D01*
X478588Y361262D01*
X480260Y360754D01*
X482000Y360583D01*
X483740Y360754D01*
X485412Y361262D01*
X486954Y362086D01*
X488305Y363195D01*
X489414Y364546D01*
X490238Y366088D01*
X490746Y367760D01*
X490917Y369500D01*
X490746Y371240D01*
X490238Y372912D01*
X489414Y374454D01*
X488305Y375805D01*
X486954Y376914D01*
X485412Y377738D01*
X483740Y378246D01*
X482000Y378417D01*
D02*
G37*
G36*
X520500Y380421D02*
X519968Y380351D01*
X519007Y379953D01*
X518181Y379319D01*
X517547Y378493D01*
X517149Y377532D01*
X517079Y377000D01*
X520500D01*
Y380421D01*
D02*
G37*
G36*
X521500D02*
Y377000D01*
X524921D01*
X524851Y377532D01*
X524453Y378493D01*
X523819Y379319D01*
X522993Y379953D01*
X522032Y380351D01*
X521500Y380421D01*
D02*
G37*
G36*
X520500Y376000D02*
X517079D01*
X517149Y375468D01*
X517547Y374507D01*
X518181Y373681D01*
X519007Y373047D01*
X519968Y372649D01*
X520500Y372579D01*
Y376000D01*
D02*
G37*
G36*
X524921D02*
X521500D01*
Y372579D01*
X522032Y372649D01*
X522993Y373047D01*
X523819Y373681D01*
X524453Y374507D01*
X524851Y375468D01*
X524921Y376000D01*
D02*
G37*
G36*
X488000Y325500D02*
X484579D01*
X484649Y324968D01*
X485047Y324007D01*
X485681Y323181D01*
X486507Y322547D01*
X487468Y322149D01*
X488000Y322079D01*
Y325500D01*
D02*
G37*
G36*
X492421D02*
X489000D01*
Y322079D01*
X489532Y322149D01*
X490493Y322547D01*
X491319Y323181D01*
X491953Y324007D01*
X492351Y324968D01*
X492421Y325500D01*
D02*
G37*
G36*
X498500Y329987D02*
X497468Y329851D01*
X496507Y329453D01*
X495681Y328819D01*
X495047Y327993D01*
X494649Y327032D01*
X494513Y326000D01*
X494649Y324968D01*
X495047Y324007D01*
X495681Y323181D01*
X496507Y322547D01*
X497468Y322149D01*
X498500Y322013D01*
X499532Y322149D01*
X500493Y322547D01*
X501319Y323181D01*
X501953Y324007D01*
X502351Y324968D01*
X502487Y326000D01*
X502351Y327032D01*
X501953Y327993D01*
X501319Y328819D01*
X500493Y329453D01*
X499532Y329851D01*
X498500Y329987D01*
D02*
G37*
G36*
X472453Y329953D02*
X464547D01*
Y322047D01*
X472453D01*
Y329953D01*
D02*
G37*
G36*
X541977Y370000D02*
X537000D01*
X532023D01*
X532129Y369195D01*
X532632Y367978D01*
X533434Y366934D01*
X534478Y366132D01*
X534798Y366000D01*
X534699Y365500D01*
X532000D01*
Y355500D01*
X542000D01*
Y365500D01*
X539301D01*
X539202Y366000D01*
X539522Y366132D01*
X540566Y366934D01*
X541367Y367978D01*
X541871Y369195D01*
X541977Y370000D01*
D02*
G37*
G36*
X506500Y363788D02*
X505519Y363659D01*
X504606Y363281D01*
X503821Y362679D01*
X503219Y361894D01*
X502841Y360981D01*
X502712Y360000D01*
X502841Y359019D01*
X503219Y358106D01*
X503821Y357321D01*
X504606Y356719D01*
X505519Y356341D01*
X506500Y356212D01*
X507480Y356341D01*
X508394Y356719D01*
X509179Y357321D01*
X509781Y358106D01*
X510159Y359019D01*
X510288Y360000D01*
X510159Y360981D01*
X509781Y361894D01*
X509179Y362679D01*
X508394Y363281D01*
X507480Y363659D01*
X506500Y363788D01*
D02*
G37*
G36*
X489000Y329921D02*
Y326500D01*
X492421D01*
X492351Y327032D01*
X491953Y327993D01*
X491319Y328819D01*
X490493Y329453D01*
X489532Y329851D01*
X489000Y329921D01*
D02*
G37*
G36*
X524953Y360453D02*
X517047D01*
Y352547D01*
X524953D01*
Y360453D01*
D02*
G37*
G36*
X478500Y415487D02*
X477468Y415351D01*
X476507Y414953D01*
X475681Y414319D01*
X475047Y413493D01*
X474649Y412532D01*
X474513Y411500D01*
X474649Y410468D01*
X474970Y409694D01*
Y393462D01*
X458538Y377030D01*
X443806D01*
X443032Y377351D01*
X442000Y377487D01*
X440968Y377351D01*
X440007Y376953D01*
X439181Y376319D01*
X438547Y375493D01*
X438227Y374719D01*
X433004Y369496D01*
X432502Y368843D01*
X432215Y368861D01*
X431983Y368958D01*
X431871Y369805D01*
X431367Y371022D01*
X430566Y372066D01*
X429522Y372867D01*
X429202Y373000D01*
X429301Y373500D01*
X432000D01*
Y383500D01*
X422000D01*
Y373500D01*
X424699D01*
X424798Y373000D01*
X424478Y372867D01*
X423434Y372066D01*
X422633Y371022D01*
X422129Y369805D01*
X422023Y369000D01*
X427000D01*
Y368000D01*
X422023D01*
X422129Y367195D01*
X422633Y365978D01*
X423434Y364934D01*
X424478Y364132D01*
X425352Y363771D01*
Y363229D01*
X424478Y362867D01*
X423434Y362066D01*
X422633Y361022D01*
X422129Y359805D01*
X421957Y358500D01*
X422129Y357195D01*
X422633Y355978D01*
X423434Y354934D01*
X424478Y354133D01*
X425695Y353629D01*
X427000Y353457D01*
X428305Y353629D01*
X429522Y354133D01*
X430566Y354934D01*
X431367Y355978D01*
X431470Y356225D01*
X431970Y356126D01*
Y342000D01*
X432090Y341086D01*
X432443Y340235D01*
X433004Y339504D01*
X459004Y313504D01*
X459735Y312943D01*
X460586Y312590D01*
X461500Y312470D01*
X474000D01*
X474914Y312590D01*
X475765Y312943D01*
X476496Y313504D01*
X480996Y318004D01*
X481557Y318735D01*
X481910Y319586D01*
X482030Y320500D01*
Y324194D01*
X482273Y324781D01*
X484087Y326595D01*
X484279Y326500D01*
X488000D01*
Y330221D01*
X487905Y330413D01*
X496496Y339004D01*
X497057Y339735D01*
X497410Y340586D01*
X497530Y341500D01*
Y349000D01*
Y358038D01*
X504962Y365470D01*
X509038D01*
X510504Y364004D01*
X511235Y363443D01*
X512086Y363090D01*
X513000Y362970D01*
X519194D01*
X519968Y362649D01*
X521000Y362513D01*
X522032Y362649D01*
X522993Y363047D01*
X523819Y363681D01*
X524453Y364507D01*
X524851Y365468D01*
X524987Y366500D01*
X524851Y367532D01*
X524453Y368493D01*
X523819Y369319D01*
X522993Y369953D01*
X522032Y370351D01*
X521000Y370487D01*
X519968Y370351D01*
X519194Y370030D01*
X514462D01*
X512996Y371496D01*
X512265Y372057D01*
X511414Y372410D01*
X510500Y372530D01*
X503500D01*
X502586Y372410D01*
X501735Y372057D01*
X501004Y371496D01*
X491504Y361996D01*
X490943Y361265D01*
X490590Y360414D01*
X490470Y359500D01*
Y352530D01*
X484216D01*
X484093Y352625D01*
X483083Y353043D01*
X482000Y353185D01*
X480917Y353043D01*
X479907Y352625D01*
X479040Y351959D01*
X478375Y351093D01*
X477957Y350083D01*
X477815Y349000D01*
X477957Y347917D01*
X478375Y346907D01*
X479040Y346041D01*
X479907Y345375D01*
X480917Y344957D01*
X482000Y344815D01*
X483083Y344957D01*
X484093Y345375D01*
X484216Y345470D01*
X490470D01*
Y342962D01*
X486668Y339161D01*
X486141Y339340D01*
X486043Y340083D01*
X485625Y341093D01*
X484960Y341960D01*
X484093Y342625D01*
X483083Y343043D01*
X482000Y343185D01*
X480917Y343043D01*
X479907Y342625D01*
X479040Y341960D01*
X478375Y341093D01*
X477957Y340083D01*
X477815Y339000D01*
X477957Y337917D01*
X478375Y336907D01*
X479040Y336040D01*
X479907Y335375D01*
X480917Y334957D01*
X481660Y334859D01*
X481839Y334331D01*
X477281Y329773D01*
X476507Y329453D01*
X475681Y328819D01*
X475047Y327993D01*
X474649Y327032D01*
X474513Y326000D01*
X474649Y324968D01*
X474970Y324194D01*
Y321962D01*
X472538Y319530D01*
X462962D01*
X439030Y343462D01*
Y350166D01*
X439530Y350413D01*
X440007Y350047D01*
X440968Y349649D01*
X442000Y349513D01*
X443032Y349649D01*
X443993Y350047D01*
X444819Y350681D01*
X445453Y351507D01*
X445851Y352468D01*
X445987Y353500D01*
X445851Y354532D01*
X445453Y355493D01*
X444819Y356319D01*
X443993Y356953D01*
X443032Y357351D01*
X442000Y357487D01*
X440968Y357351D01*
X440007Y356953D01*
X439530Y356587D01*
X439030Y356834D01*
Y360166D01*
X439530Y360413D01*
X440007Y360047D01*
X440968Y359649D01*
X441500Y359579D01*
Y363500D01*
Y367721D01*
X441405Y367913D01*
X443219Y369726D01*
X443806Y369970D01*
X455970D01*
Y361292D01*
X455841Y360981D01*
X455712Y360000D01*
X455841Y359019D01*
X456219Y358106D01*
X456821Y357321D01*
X457606Y356719D01*
X458520Y356341D01*
X459500Y356212D01*
X460480Y356341D01*
X461394Y356719D01*
X462179Y357321D01*
X462781Y358106D01*
X463159Y359019D01*
X463288Y360000D01*
X463159Y360981D01*
X463030Y361292D01*
Y371538D01*
X480996Y389504D01*
X481557Y390235D01*
X481910Y391086D01*
X482030Y392000D01*
Y409694D01*
X482351Y410468D01*
X482487Y411500D01*
X482351Y412532D01*
X481953Y413493D01*
X481319Y414319D01*
X480493Y414953D01*
X479532Y415351D01*
X478500Y415487D01*
D02*
G37*
G36*
X488000Y411000D02*
X484579D01*
X484649Y410468D01*
X485047Y409507D01*
X485681Y408681D01*
X486507Y408047D01*
X487468Y407649D01*
X488000Y407579D01*
Y411000D01*
D02*
G37*
G36*
X492421D02*
X489000D01*
Y407579D01*
X489532Y407649D01*
X490493Y408047D01*
X491319Y408681D01*
X491953Y409507D01*
X492351Y410468D01*
X492421Y411000D01*
D02*
G37*
G36*
X498500Y415487D02*
X497468Y415351D01*
X496507Y414953D01*
X495681Y414319D01*
X495047Y413493D01*
X494649Y412532D01*
X494513Y411500D01*
X494649Y410468D01*
X495047Y409507D01*
X495681Y408681D01*
X496507Y408047D01*
X497468Y407649D01*
X498500Y407513D01*
X499532Y407649D01*
X500493Y408047D01*
X501319Y408681D01*
X501953Y409507D01*
X502351Y410468D01*
X502487Y411500D01*
X502351Y412532D01*
X501953Y413493D01*
X501319Y414319D01*
X500493Y414953D01*
X499532Y415351D01*
X498500Y415487D01*
D02*
G37*
G36*
X472453Y415453D02*
X464547D01*
Y407547D01*
X472453D01*
Y415453D01*
D02*
G37*
G36*
X472500Y430043D02*
X471195Y429871D01*
X469978Y429367D01*
X468934Y428566D01*
X468132Y427522D01*
X467629Y426305D01*
X467457Y425000D01*
X467629Y423695D01*
X468132Y422478D01*
X468934Y421434D01*
X469978Y420633D01*
X471195Y420129D01*
X472500Y419957D01*
X473805Y420129D01*
X475022Y420633D01*
X476066Y421434D01*
X476867Y422478D01*
X477229Y423352D01*
X477771D01*
X478132Y422478D01*
X478934Y421434D01*
X479978Y420633D01*
X481195Y420129D01*
X482000Y420023D01*
Y425000D01*
Y429977D01*
X481195Y429871D01*
X479978Y429367D01*
X478934Y428566D01*
X478132Y427522D01*
X477771Y426648D01*
X477229D01*
X476867Y427522D01*
X476066Y428566D01*
X475022Y429367D01*
X473805Y429871D01*
X472500Y430043D01*
D02*
G37*
G36*
X497500Y430000D02*
X487500D01*
Y427301D01*
X487000Y427202D01*
X486868Y427522D01*
X486066Y428566D01*
X485022Y429367D01*
X483805Y429871D01*
X483000Y429977D01*
Y425000D01*
Y420023D01*
X483805Y420129D01*
X485022Y420633D01*
X486066Y421434D01*
X486868Y422478D01*
X487000Y422798D01*
X487500Y422699D01*
Y420000D01*
X497500D01*
Y430000D01*
D02*
G37*
G36*
X488000Y415421D02*
X487468Y415351D01*
X486507Y414953D01*
X485681Y414319D01*
X485047Y413493D01*
X484649Y412532D01*
X484579Y412000D01*
X488000D01*
Y415421D01*
D02*
G37*
G36*
X489000D02*
Y412000D01*
X492421D01*
X492351Y412532D01*
X491953Y413493D01*
X491319Y414319D01*
X490493Y414953D01*
X489532Y415351D01*
X489000Y415421D01*
D02*
G37*
G36*
X452343Y410921D02*
Y407500D01*
X455764D01*
X455694Y408032D01*
X455295Y408993D01*
X454662Y409819D01*
X453836Y410453D01*
X452874Y410851D01*
X452343Y410921D01*
D02*
G37*
G36*
X459500Y393788D02*
X458520Y393659D01*
X457606Y393281D01*
X456821Y392679D01*
X456219Y391894D01*
X455841Y390981D01*
X455712Y390000D01*
X455841Y389019D01*
X456219Y388106D01*
X456821Y387321D01*
X457606Y386719D01*
X458520Y386341D01*
X459500Y386212D01*
X460480Y386341D01*
X461394Y386719D01*
X462179Y387321D01*
X462781Y388106D01*
X463159Y389019D01*
X463288Y390000D01*
X463159Y390981D01*
X462781Y391894D01*
X462179Y392679D01*
X461394Y393281D01*
X460480Y393659D01*
X459500Y393788D01*
D02*
G37*
G36*
X506500D02*
X505519Y393659D01*
X504606Y393281D01*
X503821Y392679D01*
X503219Y391894D01*
X502841Y390981D01*
X502712Y390000D01*
X502841Y389019D01*
X503219Y388106D01*
X503821Y387321D01*
X504606Y386719D01*
X505519Y386341D01*
X506500Y386212D01*
X507480Y386341D01*
X508394Y386719D01*
X509179Y387321D01*
X509781Y388106D01*
X510159Y389019D01*
X510288Y390000D01*
X510159Y390981D01*
X509781Y391894D01*
X509179Y392679D01*
X508394Y393281D01*
X507480Y393659D01*
X506500Y393788D01*
D02*
G37*
G36*
X445953Y387453D02*
X438047D01*
Y379547D01*
X445953D01*
Y387453D01*
D02*
G37*
G36*
X521000Y390487D02*
X519968Y390351D01*
X519007Y389953D01*
X518181Y389319D01*
X517547Y388493D01*
X517149Y387532D01*
X517013Y386500D01*
X517149Y385468D01*
X517547Y384507D01*
X518181Y383681D01*
X519007Y383047D01*
X519968Y382649D01*
X521000Y382513D01*
X522032Y382649D01*
X522993Y383047D01*
X523819Y383681D01*
X524453Y384507D01*
X524851Y385468D01*
X524987Y386500D01*
X524851Y387532D01*
X524453Y388493D01*
X523819Y389319D01*
X522993Y389953D01*
X522032Y390351D01*
X521000Y390487D01*
D02*
G37*
G36*
X455764Y406500D02*
X452343D01*
Y403079D01*
X452874Y403149D01*
X453836Y403547D01*
X454662Y404181D01*
X455295Y405007D01*
X455694Y405968D01*
X455764Y406500D01*
D02*
G37*
G36*
X451343Y410921D02*
X450811Y410851D01*
X449849Y410453D01*
X449023Y409819D01*
X448390Y408993D01*
X447992Y408032D01*
X447922Y407500D01*
X451343D01*
Y410921D01*
D02*
G37*
G36*
X445953Y410953D02*
X438047D01*
Y403047D01*
X445953D01*
Y410953D01*
D02*
G37*
G36*
X451343Y406500D02*
X447922D01*
X447992Y405968D01*
X448390Y405007D01*
X449023Y404181D01*
X449849Y403547D01*
X450811Y403149D01*
X451343Y403079D01*
Y406500D01*
D02*
G37*
%LPD*%
D11*
X427000Y378500D02*
D03*
X537000Y360500D02*
D03*
D12*
X427000Y368500D02*
D03*
Y358500D02*
D03*
X537000Y370500D02*
D03*
Y380500D02*
D03*
X482500Y425000D02*
D03*
X472500D02*
D03*
D13*
X498500Y326000D02*
D03*
X488500D02*
D03*
X478500D02*
D03*
X442000Y353500D02*
D03*
Y363500D02*
D03*
Y373500D02*
D03*
X498500Y411500D02*
D03*
X488500D02*
D03*
X478500D02*
D03*
X521000Y386500D02*
D03*
Y376500D02*
D03*
Y366500D02*
D03*
D14*
X468500Y326000D02*
D03*
Y411500D02*
D03*
X442000Y407000D02*
D03*
D15*
X459500Y390000D02*
D03*
Y360000D02*
D03*
X506500Y390000D02*
D03*
Y360000D02*
D03*
D16*
X442000Y383500D02*
D03*
X521000Y356500D02*
D03*
D17*
X482000Y349000D02*
D03*
Y339000D02*
D03*
D18*
X451843Y407000D02*
D03*
D19*
X492500Y425000D02*
D03*
D20*
X482000Y369500D02*
D03*
D21*
X460000Y373500D02*
X478500Y392000D01*
X459500Y373000D02*
X460000Y373500D01*
X459500Y360000D02*
Y373000D01*
X494000Y349000D02*
Y359500D01*
Y341500D02*
Y349000D01*
X482000D02*
X494000D01*
X435500Y367000D02*
X442000Y373500D01*
X435500Y342000D02*
Y367000D01*
Y342000D02*
X461500Y316000D01*
X474000D01*
X478500Y320500D01*
Y326000D01*
X494000Y341500D01*
Y359500D02*
X503500Y369000D01*
X510500D01*
X513000Y366500D01*
X521000D01*
X442000Y373500D02*
X460000D01*
X478500Y392000D02*
Y411500D01*
M02*
