M48
;Layer_Color=9474304
;FILE_FORMAT=2:3
INCH
;TYPE=PLATED
T1F00S00C0.031
T2F00S00C0.033
T3F00S00C0.035
T4F00S00C0.042
T5F00S00C0.118
%
T01
X04820Y03390
X04820Y03490
T02
X04595Y03600
X04595Y03900
X05065Y03900
X05065Y03600
T03
X04685Y03260
X04420Y03535
X04420Y03635
X04420Y03735
X04420Y03835
X04420Y04070
X04518Y04070
X04685Y04115
X04785Y04115
X04885Y04115
X04985Y04115
X05210Y03865
X05210Y03765
X05210Y03665
X05210Y03565
X04985Y03260
X04885Y03260
X04785Y03260
T04
X04270Y03585
X04270Y03685
X04270Y03785
X04725Y04250
X04825Y04250
X04925Y04250
X05370Y03805
X05370Y03705
X05370Y03605
T05
X04820Y03695
M30
