%FSDAX23Y23*%
%MOIN*%
%SFA1B1*%

%IPPOS*%
%ADD11R,0.080000X0.080000*%
%ADD12C,0.080000*%
%ADD13C,0.059000*%
%ADD14R,0.059000X0.059000*%
%ADD15C,0.055000*%
%ADD16R,0.059000X0.059000*%
%ADD17C,0.063000*%
%ADD18C,0.059000*%
%ADD19R,0.080000X0.080000*%
%ADD20C,0.157000*%
%ADD21C,0.050000*%
%LNpcb1-1*%
%LPD*%
G36*
X04885Y04359D02*
X04929Y04354D01*
X04972Y04345*
X05014Y04334*
X05055Y04320*
X05096Y04303*
X05135Y04284*
X05173Y04262*
X05209Y04238*
X05244Y04211*
X05276Y04182*
X05307Y04151*
X05336Y04119*
X05363Y04084*
X05387Y04048*
X05409Y04010*
X05428Y03971*
X05445Y03930*
X05459Y03889*
X05470Y03847*
X05479Y03804*
X05484Y03760*
X05487Y03717*
Y03673*
X05484Y03630*
X05479Y03586*
X05470Y03543*
X05459Y03501*
X05445Y03460*
X05428Y03419*
X05409Y03380*
X05387Y03342*
X05363Y03306*
X05336Y03271*
X05307Y03239*
X05276Y03208*
X05244Y03179*
X05209Y03152*
X05173Y03128*
X05135Y03106*
X05096Y03087*
X05055Y03070*
X05014Y03056*
X04972Y03045*
X04929Y03036*
X04885Y03031*
X04842Y03028*
X04798*
X04755Y03031*
X04711Y03036*
X04668Y03045*
X04626Y03056*
X04585Y03070*
X04544Y03087*
X04505Y03106*
X04467Y03128*
X04431Y03152*
X04396Y03179*
X04364Y03208*
X04333Y03239*
X04304Y03271*
X04277Y03306*
X04253Y03342*
X04231Y03380*
X04212Y03419*
X04195Y03460*
X04181Y03501*
X04170Y03543*
X04161Y03586*
X04156Y03630*
X04153Y03673*
Y03717*
X04156Y03760*
X04161Y03804*
X04170Y03847*
X04181Y03889*
X04195Y03930*
X04212Y03971*
X04231Y04010*
X04253Y04048*
X04277Y04084*
X04304Y04119*
X04333Y04151*
X04364Y04182*
X04396Y04211*
X04431Y04238*
X04467Y04262*
X04505Y04284*
X04544Y04303*
X04585Y04320*
X04626Y04334*
X04668Y04345*
X04711Y04354*
X04755Y04359*
X04798Y04362*
X04842*
X04885Y04359*
G37*
%LNpcb1-2*%
%LPC*%
G36*
X04425Y03674D02*
Y03640D01*
X04459*
Y03645*
X04455Y03655*
X04448Y03663*
X04440Y03670*
X04430Y03674*
X04425*
G37*
G36*
X05370Y03855D02*
X05357Y03854D01*
X05345Y03849*
X05334Y03841*
X05326Y03830*
X05321Y03818*
X05320Y03805*
X05321Y03792*
X05326Y03780*
X05334Y03769*
X05345Y03761*
X05354Y03758*
Y03752*
X05345Y03749*
X05334Y03741*
X05326Y03730*
X05321Y03718*
X05320Y03710*
X05370*
X05420*
X05419Y03718*
X05414Y03730*
X05406Y03741*
X05395Y03749*
X05386Y03752*
Y03758*
X05395Y03761*
X05406Y03769*
X05414Y03780*
X05419Y03792*
X05420Y03805*
X05419Y03818*
X05414Y03830*
X05406Y03841*
X05395Y03849*
X05383Y03854*
X05370Y03855*
G37*
G36*
X04459Y03630D02*
X04425D01*
Y03596*
X04430*
X04440Y03600*
X04448Y03607*
X04455Y03615*
X04459Y03625*
Y03630*
G37*
G36*
X04820Y03784D02*
X04803Y03782D01*
X04786Y03777*
X04770Y03769*
X04757Y03758*
X04746Y03745*
X04738Y03729*
X04733Y03712*
X04731Y03695*
X04733Y03678*
X04738Y03661*
X04746Y03645*
X04757Y03632*
X04770Y03621*
X04786Y03613*
X04803Y03608*
X04820Y03606*
X04837Y03608*
X04854Y03613*
X04870Y03621*
X04883Y03632*
X04894Y03645*
X04902Y03661*
X04907Y03678*
X04909Y03695*
X04907Y03712*
X04902Y03729*
X04894Y03745*
X04883Y03758*
X04870Y03769*
X04854Y03777*
X04837Y03782*
X04820Y03784*
G37*
G36*
X05205Y03804D02*
X05200D01*
X05190Y03800*
X05182Y03793*
X05175Y03785*
X05171Y03775*
Y03770*
X05205*
Y03804*
G37*
G36*
X05215D02*
Y03770D01*
X05249*
Y03775*
X05245Y03785*
X05238Y03793*
X05230Y03800*
X05220Y03804*
X05215*
G37*
G36*
X05205Y03760D02*
X05171D01*
Y03755*
X05175Y03745*
X05182Y03737*
X05190Y03730*
X05200Y03726*
X05205*
Y03760*
G37*
G36*
X05249D02*
X05215D01*
Y03726*
X05220*
X05230Y03730*
X05238Y03737*
X05245Y03745*
X05249Y03755*
Y03760*
G37*
G36*
X04880Y03255D02*
X04846D01*
Y03250*
X04850Y03240*
X04857Y03232*
X04865Y03225*
X04875Y03221*
X04880*
Y03255*
G37*
G36*
X04924D02*
X04890D01*
Y03221*
X04895*
X04905Y03225*
X04913Y03232*
X04920Y03240*
X04924Y03250*
Y03255*
G37*
G36*
X04985Y03300D02*
X04975Y03299D01*
X04965Y03295*
X04957Y03288*
X04950Y03280*
X04946Y03270*
X04945Y03260*
X04946Y03250*
X04950Y03240*
X04957Y03232*
X04965Y03225*
X04975Y03221*
X04985Y03220*
X04995Y03221*
X05005Y03225*
X05013Y03232*
X05020Y03240*
X05024Y03250*
X05025Y03260*
X05024Y03270*
X05020Y03280*
X05013Y03288*
X05005Y03295*
X04995Y03299*
X04985Y03300*
G37*
G36*
X04725D02*
X04645D01*
Y03220*
X04725*
Y03300*
G37*
G36*
X05420Y03700D02*
X05370D01*
X05320*
X05321Y03692*
X05326Y03680*
X05334Y03669*
X05345Y03661*
X05348Y03660*
X05347Y03655*
X05320*
Y03555*
X05420*
Y03655*
X05393*
X05392Y03660*
X05395Y03661*
X05406Y03669*
X05414Y03680*
X05419Y03692*
X05420Y03700*
G37*
G36*
X05065Y03638D02*
X05055Y03637D01*
X05046Y03633*
X05038Y03627*
X05032Y03619*
X05028Y03610*
X05027Y03600*
X05028Y03590*
X05032Y03581*
X05038Y03573*
X05046Y03567*
X05055Y03563*
X05065Y03562*
X05075Y03563*
X05084Y03567*
X05092Y03573*
X05098Y03581*
X05102Y03590*
X05103Y03600*
X05102Y03610*
X05098Y03619*
X05092Y03627*
X05084Y03633*
X05075Y03637*
X05065Y03638*
G37*
G36*
X04890Y03299D02*
Y03265D01*
X04924*
Y03270*
X04920Y03280*
X04913Y03288*
X04905Y03295*
X04895Y03299*
X04890*
G37*
G36*
X05250Y03605D02*
X05170D01*
Y03525*
X05250*
Y03605*
G37*
G36*
X04785Y04155D02*
X04775Y04154D01*
X04765Y04150*
X04757Y04143*
X04750Y04135*
X04746Y04125*
X04745Y04115*
X04746Y04105*
X04750Y04097*
Y03935*
X04585Y03770*
X04438*
X04430Y03774*
X04420Y03775*
X04410Y03774*
X04400Y03770*
X04392Y03763*
X04385Y03755*
X04382Y03747*
X04330Y03695*
X04325Y03688*
X04322Y03689*
X04320Y03690*
X04319Y03698*
X04314Y03710*
X04306Y03721*
X04295Y03729*
X04292Y03730*
X04293Y03735*
X04320*
Y03835*
X04220*
Y03735*
X04247*
X04248Y03730*
X04245Y03729*
X04234Y03721*
X04226Y03710*
X04221Y03698*
X04220Y03690*
X04270*
Y03680*
X04220*
X04221Y03672*
X04226Y03660*
X04234Y03649*
X04245Y03641*
X04254Y03638*
Y03632*
X04245Y03629*
X04234Y03621*
X04226Y03610*
X04221Y03598*
X04220Y03585*
X04221Y03572*
X04226Y03560*
X04234Y03549*
X04245Y03541*
X04257Y03536*
X04270Y03535*
X04283Y03536*
X04295Y03541*
X04306Y03549*
X04314Y03560*
X04315Y03562*
X04320Y03561*
Y03420*
X04321Y03411*
X04324Y03402*
X04330Y03395*
X04590Y03135*
X04597Y03129*
X04606Y03126*
X04615Y03125*
X04740*
X04749Y03126*
X04758Y03129*
X04765Y03135*
X04810Y03180*
X04816Y03187*
X04819Y03196*
X04820Y03205*
Y03242*
X04823Y03248*
X04841Y03266*
X04843Y03265*
X04880*
Y03302*
X04879Y03304*
X04965Y03390*
X04971Y03397*
X04974Y03406*
X04975Y03415*
Y03490*
Y03580*
X05050Y03655*
X05090*
X05105Y03640*
X05112Y03634*
X05121Y03631*
X05130Y03630*
X05192*
X05200Y03626*
X05210Y03625*
X05220Y03626*
X05230Y03630*
X05238Y03637*
X05245Y03645*
X05249Y03655*
X05250Y03665*
X05249Y03675*
X05245Y03685*
X05238Y03693*
X05230Y03700*
X05220Y03704*
X05210Y03705*
X05200Y03704*
X05192Y03700*
X05145*
X05130Y03715*
X05123Y03721*
X05114Y03724*
X05105Y03725*
X05035*
X05026Y03724*
X05017Y03721*
X05010Y03715*
X04915Y03620*
X04909Y03613*
X04906Y03604*
X04905Y03595*
Y03525*
X04842*
X04841Y03526*
X04831Y03530*
X04820Y03532*
X04809Y03530*
X04799Y03526*
X04790Y03520*
X04784Y03511*
X04780Y03501*
X04778Y03490*
X04780Y03479*
X04784Y03469*
X04790Y03460*
X04799Y03454*
X04809Y03450*
X04820Y03448*
X04831Y03450*
X04841Y03454*
X04842Y03455*
X04905*
Y03430*
X04867Y03392*
X04861Y03393*
X04860Y03401*
X04856Y03411*
X04850Y03420*
X04841Y03426*
X04831Y03430*
X04820Y03432*
X04809Y03430*
X04799Y03426*
X04790Y03420*
X04784Y03411*
X04780Y03401*
X04778Y03390*
X04780Y03379*
X04784Y03369*
X04790Y03360*
X04799Y03354*
X04809Y03350*
X04817Y03349*
X04818Y03343*
X04773Y03298*
X04765Y03295*
X04757Y03288*
X04750Y03280*
X04746Y03270*
X04745Y03260*
X04746Y03250*
X04750Y03242*
Y03220*
X04725Y03195*
X04630*
X04390Y03435*
Y03502*
X04395Y03504*
X04400Y03500*
X04410Y03496*
X04420Y03495*
X04430Y03496*
X04440Y03500*
X04448Y03507*
X04455Y03515*
X04459Y03525*
X04460Y03535*
X04459Y03545*
X04455Y03555*
X04448Y03563*
X04440Y03570*
X04430Y03574*
X04420Y03575*
X04410Y03574*
X04400Y03570*
X04395Y03566*
X04390Y03568*
Y03602*
X04395Y03604*
X04400Y03600*
X04410Y03596*
X04415*
Y03635*
Y03677*
X04414Y03679*
X04432Y03697*
X04438Y03700*
X04560*
Y03613*
X04558Y03610*
X04557Y03600*
X04558Y03590*
X04562Y03581*
X04568Y03573*
X04576Y03567*
X04585Y03563*
X04595Y03562*
X04605Y03563*
X04614Y03567*
X04622Y03573*
X04628Y03581*
X04632Y03590*
X04633Y03600*
X04632Y03610*
X04630Y03613*
Y03715*
X04810Y03895*
X04816Y03902*
X04819Y03911*
X04820Y03920*
Y04097*
X04824Y04105*
X04825Y04115*
X04824Y04125*
X04820Y04135*
X04813Y04143*
X04805Y04150*
X04795Y04154*
X04785Y04155*
G37*
G36*
X04880Y04110D02*
X04846D01*
Y04105*
X04850Y04095*
X04857Y04087*
X04865Y04080*
X04875Y04076*
X04880*
Y04110*
G37*
G36*
X04924D02*
X04890D01*
Y04076*
X04895*
X04905Y04080*
X04913Y04087*
X04920Y04095*
X04924Y04105*
Y04110*
G37*
G36*
X04985Y04155D02*
X04975Y04154D01*
X04965Y04150*
X04957Y04143*
X04950Y04135*
X04946Y04125*
X04945Y04115*
X04946Y04105*
X04950Y04095*
X04957Y04087*
X04965Y04080*
X04975Y04076*
X04985Y04075*
X04995Y04076*
X05005Y04080*
X05013Y04087*
X05020Y04095*
X05024Y04105*
X05025Y04115*
X05024Y04125*
X05020Y04135*
X05013Y04143*
X05005Y04150*
X04995Y04154*
X04985Y04155*
G37*
G36*
X04725D02*
X04645D01*
Y04075*
X04725*
Y04155*
G37*
G36*
Y04300D02*
X04712Y04299D01*
X04700Y04294*
X04689Y04286*
X04681Y04275*
X04676Y04263*
X04675Y04250*
X04676Y04237*
X04681Y04225*
X04689Y04214*
X04700Y04206*
X04712Y04201*
X04725Y04200*
X04738Y04201*
X04750Y04206*
X04761Y04214*
X04769Y04225*
X04772Y04234*
X04778*
X04781Y04225*
X04789Y04214*
X04800Y04206*
X04812Y04201*
X04820Y04200*
Y04250*
Y04300*
X04812Y04299*
X04800Y04294*
X04789Y04286*
X04781Y04275*
X04778Y04266*
X04772*
X04769Y04275*
X04761Y04286*
X04750Y04294*
X04738Y04299*
X04725Y04300*
G37*
G36*
X04975D02*
X04875D01*
Y04273*
X04870Y04272*
X04869Y04275*
X04861Y04286*
X04850Y04294*
X04838Y04299*
X04830Y04300*
Y04250*
Y04200*
X04838Y04201*
X04850Y04206*
X04861Y04214*
X04869Y04225*
X04870Y04228*
X04875Y04227*
Y04200*
X04975*
Y04300*
G37*
G36*
X04880Y04154D02*
X04875D01*
X04865Y04150*
X04857Y04143*
X04850Y04135*
X04846Y04125*
Y04120*
X04880*
Y04154*
G37*
G36*
X04890D02*
Y04120D01*
X04924*
Y04125*
X04920Y04135*
X04913Y04143*
X04905Y04150*
X04895Y04154*
X04890*
G37*
G36*
X04523Y04109D02*
Y04075D01*
X04558*
X04557Y04080*
X04553Y04090*
X04547Y04098*
X04538Y04105*
X04529Y04109*
X04523*
G37*
G36*
X04595Y03938D02*
X04585Y03937D01*
X04576Y03933*
X04568Y03927*
X04562Y03919*
X04558Y03910*
X04557Y03900*
X04558Y03890*
X04562Y03881*
X04568Y03873*
X04576Y03867*
X04585Y03863*
X04595Y03862*
X04605Y03863*
X04614Y03867*
X04622Y03873*
X04628Y03881*
X04632Y03890*
X04633Y03900*
X04632Y03910*
X04628Y03919*
X04622Y03927*
X04614Y03933*
X04605Y03937*
X04595Y03938*
G37*
G36*
X05065D02*
X05055Y03937D01*
X05046Y03933*
X05038Y03927*
X05032Y03919*
X05028Y03910*
X05027Y03900*
X05028Y03890*
X05032Y03881*
X05038Y03873*
X05046Y03867*
X05055Y03863*
X05065Y03862*
X05075Y03863*
X05084Y03867*
X05092Y03873*
X05098Y03881*
X05102Y03890*
X05103Y03900*
X05102Y03910*
X05098Y03919*
X05092Y03927*
X05084Y03933*
X05075Y03937*
X05065Y03938*
G37*
G36*
X04460Y03875D02*
X04380D01*
Y03795*
X04460*
Y03875*
G37*
G36*
X05210Y03905D02*
X05200Y03904D01*
X05190Y03900*
X05182Y03893*
X05175Y03885*
X05171Y03875*
X05170Y03865*
X05171Y03855*
X05175Y03845*
X05182Y03837*
X05190Y03830*
X05200Y03826*
X05210Y03825*
X05220Y03826*
X05230Y03830*
X05238Y03837*
X05245Y03845*
X05249Y03855*
X05250Y03865*
X05249Y03875*
X05245Y03885*
X05238Y03893*
X05230Y03900*
X05220Y03904*
X05210Y03905*
G37*
G36*
X04558Y04065D02*
X04523D01*
Y04031*
X04529*
X04538Y04035*
X04547Y04042*
X04553Y04050*
X04557Y04060*
X04558Y04065*
G37*
G36*
X04513Y04109D02*
X04508D01*
X04498Y04105*
X04490Y04098*
X04484Y04090*
X04480Y04080*
X04479Y04075*
X04513*
Y04109*
G37*
G36*
X04460Y04110D02*
X04380D01*
Y04030*
X04460*
Y04110*
G37*
G36*
X04513Y04065D02*
X04479D01*
X04480Y04060*
X04484Y04050*
X04490Y04042*
X04498Y04035*
X04508Y04031*
X04513*
Y04065*
G37*
%LNpcb1-3*%
%LPD*%
G54D11*
X04270Y03785D03*
X05370Y03605D03*
G54D12*
X04270Y03685D03*
Y03585D03*
X05370Y03705D03*
Y03805D03*
X04825Y04250D03*
X04725D03*
G54D13*
X04985Y03260D03*
X04885D03*
X04785D03*
X04420Y03535D03*
Y03635D03*
Y03735D03*
X04985Y04115D03*
X04885D03*
X04785D03*
X05210Y03865D03*
Y03765D03*
Y03665D03*
G54D14*
X04685Y03260D03*
Y04115D03*
X04420Y04070D03*
G54D15*
X04595Y03900D03*
Y03600D03*
X05065Y03900D03*
Y03600D03*
G54D16*
X04420Y03835D03*
X05210Y03565D03*
G54D17*
X04820Y03490D03*
Y03390D03*
G54D18*
X04518Y04070D03*
G54D19*
X04925Y04250D03*
G54D20*
X04820Y03695D03*
G54D21*
X04600Y03735D02*
X04785Y03920D01*
X04595Y03730D02*
X04600Y03735D01*
X04595Y03600D02*
Y03730D01*
X04940Y03490D02*
Y03595D01*
Y03415D02*
Y03490D01*
X04820D02*
X04940D01*
X04355Y03670D02*
X04420Y03735D01*
X04355Y03420D02*
Y03670D01*
Y03420D02*
X04615Y03160D01*
X04740*
X04785Y03205*
Y03260*
X04940Y03415*
Y03595D02*
X05035Y03690D01*
X05105*
X05130Y03665*
X05210*
X04420Y03735D02*
X04600D01*
X04785Y03920D02*
Y04115D01*
M02*